<svg xmlns="http://www.w3.org/2000/svg" width="511.975" height="512" viewBox="0 0 511.975 512">
  <path id="sun-solid" d="M256,160a96,96,0,1,0,96,96A96.153,96.153,0,0,0,256,160Zm246.4,80.5-94.7-47.3L441.2,92.8c4.5-13.6-8.4-26.5-21.9-21.9L318.9,104.4,271.5,9.6a17.313,17.313,0,0,0-31,0l-47.3,94.7L92.7,70.8c-13.6-4.5-26.5,8.4-21.9,21.9l33.5,100.4L9.6,240.5a17.313,17.313,0,0,0,0,31l94.7,47.3L70.8,419.3c-4.5,13.6,8.4,26.5,21.9,21.9l100.4-33.5,47.3,94.7a17.313,17.313,0,0,0,31,0l47.3-94.7,100.4,33.5c13.6,4.5,26.5-8.4,21.9-21.9L407.5,318.9l94.7-47.3a17.334,17.334,0,0,0,.2-31.1Zm-155.9,106a127.986,127.986,0,1,1,0-181A128.135,128.135,0,0,1,346.5,346.5Z" fill="#f8f8f8"/>
</svg>
